<?xml version="1.0" encoding="UTF-8" standalone="no"?>
<svg
   viewBox="0 0 24 24"
   fill="currentColor"
   version="1.1"
   id="svg2849"
   sodipodi:docname="logo-syenasweta.svg"
   inkscape:version="1.2.2 (b0a8486541, 2022-12-01)"
   width="24"
   height="24"
   xmlns:inkscape="http://www.inkscape.org/namespaces/inkscape"
   xmlns:sodipodi="http://sodipodi.sourceforge.net/DTD/sodipodi-0.dtd"
   xmlns="http://www.w3.org/2000/svg"
   xmlns:svg="http://www.w3.org/2000/svg">
  <defs
     id="defs2853">
    <inkscape:path-effect
       effect="bspline"
       id="path-effect185"
       is_visible="true"
       lpeversion="1"
       weight="33.333333"
       steps="2"
       helper_size="0"
       apply_no_weight="true"
       apply_with_weight="true"
       only_selected="false" />
    <inkscape:path-effect
       effect="bspline"
       id="path-effect187"
       is_visible="true"
       lpeversion="1"
       weight="33.333333"
       steps="2"
       helper_size="0"
       apply_no_weight="true"
       apply_with_weight="true"
       only_selected="false" />
    <inkscape:path-effect
       effect="bspline"
       id="path-effect185-3"
       is_visible="true"
       lpeversion="1"
       weight="33.333333"
       steps="2"
       helper_size="0"
       apply_no_weight="true"
       apply_with_weight="true"
       only_selected="false" />
    <inkscape:path-effect
       effect="bspline"
       id="path-effect187-6"
       is_visible="true"
       lpeversion="1"
       weight="33.333333"
       steps="2"
       helper_size="0"
       apply_no_weight="true"
       apply_with_weight="true"
       only_selected="false" />
  </defs>
  <sodipodi:namedview
     id="namedview2851"
     pagecolor="#ffffff"
     bordercolor="#000000"
     borderopacity="0.25"
     inkscape:showpageshadow="2"
     inkscape:pageopacity="0.0"
     inkscape:pagecheckerboard="0"
     inkscape:deskcolor="#d1d1d1"
     showgrid="false"
     inkscape:zoom="11.313709"
     inkscape:cx="6.1871843"
     inkscape:cy="12.727922"
     inkscape:window-width="1366"
     inkscape:window-height="699"
     inkscape:window-x="0"
     inkscape:window-y="32"
     inkscape:window-maximized="1"
     inkscape:current-layer="svg2849" />
  <g
     id="g188"
     transform="matrix(1.1525858,0,0,1.1525858,-1.8310296,-1.8310296)">
    <path
       d="M 2.3931038,4.7400035 18.083601,1.6081864 c 0.541617,-0.108106 1.068291,0.2433208 1.176395,0.7849175 l 3.131817,15.6904971 c 0.108103,0.541616 -0.243302,1.068289 -0.784917,1.176396 L 5.9163977,22.391814 C 5.374801,22.499916 4.8481096,22.148512 4.7400032,21.606896 L 1.6081861,5.9163981 C 1.5000835,5.3748013 1.851507,4.8481059 2.3931038,4.7400035 Z"
       id="path2847"
       style="fill:#2c302f" />
    <g
       id="g154"
       transform="matrix(0.05570958,0,0,0.05570958,60.296699,3.8761666)"
       style="fill:#b5c9bd;fill-opacity:1;stroke:none;stroke-width:0.999731;stroke-dasharray:none">
      <g
         id="g1012"
         transform="translate(17.997817)"
         style="fill:#b5c9bd;fill-opacity:1;stroke:none;stroke-width:0.999731;stroke-dasharray:none">
        <path
           style="fill:#b5c9bd;fill-opacity:1;stroke:none;stroke-width:0.999731;stroke-linecap:butt;stroke-linejoin:miter;stroke-dasharray:none;stroke-opacity:1"
           d="m -1001.4665,37.256913 c -0.019,0.215245 -0.056,0.645685 -0.3785,4.373629 -0.3226,3.727943 -0.9307,10.755181 -0.4186,17.843032 0.5121,7.087851 2.1443,14.237462 5.55392,20.65155 3.40959,6.414088 8.59606,12.092357 17.22337,16.899943 8.62731,4.807583 20.69433,8.744063 33.92706,12.275743 13.23272,3.53168 27.62985,6.65823 40.2471,9.4368 12.61724,2.77857 23.45387,5.209 34.03402,8.29202 10.58015,3.08302 20.90295,6.8183 29.15148,12.65498 8.24853,5.83667 14.42189,13.77385 17.50865,22.59347 3.08675,8.81961 3.08675,18.5206 1.11956,27.19369 -1.96718,8.67309 -5.90123,16.31732 -10.97256,23.61957 -5.07133,7.30224 -11.27902,14.26135 -20.1159,21.19894 -8.83689,6.9376 -20.29999,13.85157 -26.38631,17.22164 -6.08631,3.37007 -6.79183,3.19369 -7.23279,3.01742 -0.44095,-0.17627 -0.63992,-0.37522 -0.71696,-0.45228 C -889,254 -889.00001,254.00001 -889,254 c 0,0 0,0 5.27342,-4.61426 5.27343,-4.61427 15.89324,-13.90665 24.18015,-23.05363 8.28692,-9.14698 14.27755,-18.18066 17.9119,-25.89915 3.63434,-7.71849 4.91237,-14.1217 4.27317,-20.51238 -0.6392,-6.39069 -3.19572,-12.76855 -8.14469,-18.52692 -4.94897,-5.75838 -12.29022,-10.89684 -24.48259,-15.2806 -12.19237,-4.38375 -29.23468,-8.01234 -47.62272,-12.05494 -18.38804,-4.0426 -38.1196,-8.49874 -52.3167,-12.8309 -14.19711,-4.33216 -22.85807,-8.5399 -29.83473,-14.61265 -6.97671,-6.07275 -12.26811,-14.009948 -14.77631,-22.720558 -2.5082,-8.71061 -2.2325,-18.193529 -0.4686,-25.690355 1.7639,-7.496827 5.0163,-13.007187 7.3036,-16.202712 2.2873,-3.195526 3.6105,-4.07767 4.4924,-4.51858 0.882,-0.44091 1.3227,-0.440904 1.7637,-0.440897 0,0 10e-5,2e-4 -0.019,0.215445 z"
           id="path1038-7"
           inkscape:path-effect="#path-effect185-3"
           inkscape:original-d="m -1001.4479,37.041668 c -0.037,0.43051 -0.074,0.86097 -0.1117,1.29147 -0.6077,7.02537 -1.2158,14.05261 -1.8241,21.07845 1.6324,7.149802 3.2646,14.299412 4.89656,21.448722 5.18706,5.67889 10.37353,11.35716 15.56006,17.03552 12.06803,3.93698 24.13505,7.87346 36.20254,11.80991 14.39797,3.12694 28.7951,6.2535 43.19226,9.37985 10.83733,2.43079 21.67396,4.86122 32.51055,7.29143 10.32369,3.73578 20.64649,7.47107 30.96965,11.20631 6.17399,7.93792 12.34736,15.8751 18.52083,23.8125 2.6e-4,9.70186 2.6e-4,19.40285 0,29.10417 -3.9334,7.64536 -7.86745,15.28959 -11.80263,22.93363 -6.20759,6.96072 -12.41528,13.91982 -18.62445,20.87886 -11.46527,6.9157 -22.92837,13.82967 -34.39583,20.74584 -0.70541,-0.17615 -1.41093,-0.35253 -2.11667,-0.52916 -0.17612,-0.1761 -0.37509,-0.37505 -0.5292,-0.52915 2.7e-4,2.6e-4 3e-5,-2e-5 3e-5,-2e-5 0,0 2.6e-4,2.6e-4 0,0 10.54709,-9.22825 21.16691,-18.52063 31.74993,-27.78131 5.99086,-9.03336 11.98149,-18.06704 17.97185,-27.10096 1.27834,-6.4032 2.55636,-12.80641 3.83415,-19.21004 -2.55636,-6.37785 -5.11288,-12.75571 -7.66971,-19.13396 -7.34128,-5.1384 -14.68253,-10.27686 -22.02419,-15.41568 -17.04306,-3.62863 -34.08538,-7.25718 -51.12898,-10.8862 -19.73249,-4.45614 -39.46405,-8.91227 -59.19707,-13.36894 -8.66121,-4.20773 -17.32216,-8.41548 -25.98388,-12.62374 -5.2915,-7.93739 -10.583,-15.87457 -15.875,-23.8125 0.2759,-9.48326 0.5515,-18.96618 0.8269,-28.449992 3.2525,-5.50965 6.5049,-11.02005 9.7564,-16.52938 1.323,-0.88157 2.6462,-1.7637 3.9687,-2.64585 0.4412,2.7e-4 1.3229,2e-5 1.3229,2e-5 z"
           sodipodi:nodetypes="cccccccccccccccccccccccccccccccc" />
        <path
           style="fill:#b5c9bd;fill-opacity:1;stroke:none;stroke-width:0.999731;stroke-linecap:butt;stroke-linejoin:miter;stroke-dasharray:none;stroke-opacity:1"
           d="m -821.40319,149.40275 c 2.17915,-7.74381 8.30143,-19.70318 13.12664,-27.88807 4.82521,-8.18488 8.35284,-12.59441 12.10122,-16.34279 3.74837,-3.74837 7.71696,-6.835054 13.44981,-8.59897 5.73285,-1.763916 13.22908,-2.204872 18.9618,1.323145 5.73272,3.528015 9.70131,11.024245 10.21188,18.327025 0.51057,7.30279 -2.43671,14.41142 -4.62861,18.36722 -2.19189,3.95581 -3.6283,4.75848 -4.35774,5.17108 -0.72945,0.4126 -0.75186,0.43509 -0.76456,0.44779 -0.0127,0.0127 -0.0167,0.0167 -0.0184,0.0159 -0.002,-8.2e-4 -0.002,-0.006 -0.002,-0.0264 10e-6,-0.0201 -2e-5,-0.0554 -3e-5,-2.23924 -10e-6,-2.18384 -2e-5,-6.58972 -1.10235,-10.53827 -1.10233,-3.94855 -3.30719,-7.47633 -6.39396,-9.46085 -3.08676,-1.98452 -7.05542,-2.42549 -11.68587,-1.1e-4 -4.63045,2.42538 -10.94364,8.73858 -14.56441,12.96805 -3.62077,4.22946 -7.77004,10.07864 -11.61475,15.78954 -3.84472,5.7109 -7.60758,11.59745 -11.37048,17.48407 -1.76389,-3.52778 -3.52762,-7.05524 -1.34847,-14.79905 z"
           id="path1048-5"
           inkscape:path-effect="#path-effect187-6"
           inkscape:original-d="m -825.34639,153.61846 c 6.12267,-11.95936 12.24495,-23.91873 18.36722,-35.87888 3.52811,-4.40955 7.05575,-8.81908 10.58334,-13.22916 3.9691,-3.08661 7.93769,-6.17329 11.90625,-9.26042 7.49693,-0.44072 14.99316,-0.88167 22.48958,-1.32292 3.9691,7.49695 7.93769,14.99318 11.90625,22.48959 -2.9472,7.10934 -5.89449,14.21797 -8.84222,21.32679 -1.43619,0.80297 -2.8726,1.60565 -4.30925,2.40805 -0.0222,0.0227 -0.0447,0.0451 -0.0672,0.0674 -0.003,0.003 -0.007,0.007 -0.0105,0.0103 2.9e-4,-0.005 6e-5,-0.0105 8e-5,-0.0158 1.2e-4,-0.0349 2.2e-4,-0.0702 -7e-5,-0.10528 2.6e-4,-4.3326 2.6e-4,-8.73848 -10e-6,-13.10811 -2.20459,-3.52751 -4.40945,-7.05529 -6.61458,-10.58335 -3.9685,-0.44071 -7.93716,-0.88167 -11.90625,-1.32292 -5.29151,5.29204 -11.60471,11.60524 -15.875,15.875 -2.97121,4.18911 -7.12048,10.03829 -11.04726,15.57319 -3.76264,5.88689 -11.28871,17.65986 -11.28871,17.65986 0,0 -3.52751,-7.05529 -5.29167,-10.58334 z"
           sodipodi:nodetypes="cccccccccsccccccccc" />
      </g>
    </g>
  </g>
</svg>
