<svg class="svg-logo" viewBox="0 0 24 24" version="1.1" id="svg2849" width="64" height="64" xmlns="http://www.w3.org/2000/svg" xmlns:svg="http://www.w3.org/2000/svg">
            <title>Syenasweta: A Website by Nashrullah Ali Fauzi</title>
            <g id="g188" transform="matrix(1.1525858,0,0,1.1525858,-1.8310296,-1.8310296)">
              <path class="square" d="M 2.3931038,4.7400035 18.083601,1.6081864 c 0.541617,-0.108106 1.068291,0.2433208 1.176395,0.7849175 l 3.131817,15.6904971 c 0.108103,0.541616 -0.243302,1.068289 -0.784917,1.176396 L 5.9163977,22.391814 C 5.374801,22.499916 4.8481096,22.148512 4.7400032,21.606896 L 1.6081861,5.9163981 C 1.5000835,5.3748013 1.851507,4.8481059 2.3931038,4.7400035 Z" id="path2847" />
              <g id="g154" transform="matrix(0.05570958,0,0,0.05570958,60.296699,3.8761666)" style="fill-opacity:1;stroke:none;stroke-width:0.999731;stroke-dasharray:none">
                <g id="g1012" transform="translate(17.997817)" style="fill-opacity:1;stroke:none;stroke-width:0.999731;stroke-dasharray:none">
                  <path class="logo" style="fill-opacity:1;stroke:none;stroke-width:0.999731;stroke-linecap:butt;stroke-linejoin:miter;stroke-dasharray:none;stroke-opacity:1" d="m -1001.4665,37.256913 c -0.019,0.215245 -0.056,0.645685 -0.3785,4.373629 -0.3226,3.727943 -0.9307,10.755181 -0.4186,17.843032 0.5121,7.087851 2.1443,14.237462 5.55392,20.65155 3.40959,6.414088 8.59606,12.092357 17.22337,16.899943 8.62731,4.807583 20.69433,8.744063 33.92706,12.275743 13.23272,3.53168 27.62985,6.65823 40.2471,9.4368 12.61724,2.77857 23.45387,5.209 34.03402,8.29202 10.58015,3.08302 20.90295,6.8183 29.15148,12.65498 8.24853,5.83667 14.42189,13.77385 17.50865,22.59347 3.08675,8.81961 3.08675,18.5206 1.11956,27.19369 -1.96718,8.67309 -5.90123,16.31732 -10.97256,23.61957 -5.07133,7.30224 -11.27902,14.26135 -20.1159,21.19894 -8.83689,6.9376 -20.29999,13.85157 -26.38631,17.22164 -6.08631,3.37007 -6.79183,3.19369 -7.23279,3.01742 -0.44095,-0.17627 -0.63992,-0.37522 -0.71696,-0.45228 C -889,254 -889.00001,254.00001 -889,254 c 0,0 0,0 5.27342,-4.61426 5.27343,-4.61427 15.89324,-13.90665 24.18015,-23.05363 8.28692,-9.14698 14.27755,-18.18066 17.9119,-25.89915 3.63434,-7.71849 4.91237,-14.1217 4.27317,-20.51238 -0.6392,-6.39069 -3.19572,-12.76855 -8.14469,-18.52692 -4.94897,-5.75838 -12.29022,-10.89684 -24.48259,-15.2806 -12.19237,-4.38375 -29.23468,-8.01234 -47.62272,-12.05494 -18.38804,-4.0426 -38.1196,-8.49874 -52.3167,-12.8309 -14.19711,-4.33216 -22.85807,-8.5399 -29.83473,-14.61265 -6.97671,-6.07275 -12.26811,-14.009948 -14.77631,-22.720558 -2.5082,-8.71061 -2.2325,-18.193529 -0.4686,-25.690355 1.7639,-7.496827 5.0163,-13.007187 7.3036,-16.202712 2.2873,-3.195526 3.6105,-4.07767 4.4924,-4.51858 0.882,-0.44091 1.3227,-0.440904 1.7637,-0.440897 0,0 10e-5,2e-4 -0.019,0.215445 z" id="path1038-7" />
                  <path class="logo" style="fill-opacity:1;stroke:none;stroke-width:0.999731;stroke-linecap:butt;stroke-linejoin:miter;stroke-dasharray:none;stroke-opacity:1" d="m -821.40319,149.40275 c 2.17915,-7.74381 8.30143,-19.70318 13.12664,-27.88807 4.82521,-8.18488 8.35284,-12.59441 12.10122,-16.34279 3.74837,-3.74837 7.71696,-6.835054 13.44981,-8.59897 5.73285,-1.763916 13.22908,-2.204872 18.9618,1.323145 5.73272,3.528015 9.70131,11.024245 10.21188,18.327025 0.51057,7.30279 -2.43671,14.41142 -4.62861,18.36722 -2.19189,3.95581 -3.6283,4.75848 -4.35774,5.17108 -0.72945,0.4126 -0.75186,0.43509 -0.76456,0.44779 -0.0127,0.0127 -0.0167,0.0167 -0.0184,0.0159 -0.002,-8.2e-4 -0.002,-0.006 -0.002,-0.0264 10e-6,-0.0201 -2e-5,-0.0554 -3e-5,-2.23924 -10e-6,-2.18384 -2e-5,-6.58972 -1.10235,-10.53827 -1.10233,-3.94855 -3.30719,-7.47633 -6.39396,-9.46085 -3.08676,-1.98452 -7.05542,-2.42549 -11.68587,-1.1e-4 -4.63045,2.42538 -10.94364,8.73858 -14.56441,12.96805 -3.62077,4.22946 -7.77004,10.07864 -11.61475,15.78954 -3.84472,5.7109 -7.60758,11.59745 -11.37048,17.48407 -1.76389,-3.52778 -3.52762,-7.05524 -1.34847,-14.79905 z" id="path1048-5" />
                </g>
              </g>
            </g>
          </svg>