<svg class="svg-logotype" viewBox="0 0 70.603995 11.035" version="1.1" id="svg2849" width="70.603996" height="11.035" xmlns="http://www.w3.org/2000/svg" xmlns:svg="http://www.w3.org/2000/svg">
          <title>Syenasweta: A Website by Nashrullah Ali Fauzi</title>
          <g id="g85" transform="matrix(0.1509078,0,0,0.1509078,88.142449,-28.312082)">
            <path class="logotype" d="m -567.60637,241.88335 c 9.70134,0 16.84005,-5.58284 16.84005,-13.27069 0,-7.68785 -5.49132,-9.79286 -13.54526,-12.35547 -8.14545,-2.56262 -11.34872,-3.66088 -11.34872,-8.96916 0,-3.93544 4.39305,-6.04045 8.69459,-6.04045 3.84392,0 7.59632,1.73892 7.87089,5.21676 0,2.74566 -2.65414,3.93544 -2.65414,4.30153 0,0.45761 1.55588,2.10501 3.75241,2.10501 3.38631,0 5.49132,-2.83719 5.49132,-5.94894 0,-5.76588 -6.68111,-8.69458 -13.36222,-8.69458 -7.96242,0 -16.56548,3.93544 -16.56548,12.0809 0,16.19939 24.71094,10.25047 24.71094,21.05006 0,4.57611 -3.47784,7.13872 -9.1522,7.13872 -6.58959,0 -9.79285,-2.4711 -9.79285,-5.94893 0,-2.74566 2.105,-3.93545 2.105,-4.30153 0,-0.45762 -1.55587,-2.10502 -3.7524,-2.10502 -3.38631,0 -5.76588,2.4711 -5.76588,5.94894 0,6.40654 7.04719,9.79285 16.47395,9.79285 z" id="path54" />
            <path class="logotype" d="m -538.2279,260.73689 c 9.24372,0 15.00961,-11.34873 18.21288,-19.03658 0.27457,-0.54913 13.7283,-33.77162 13.7283,-33.77162 1.73891,-4.21001 3.84393,-5.3998 7.87089,-5.3998 1.00674,0 1.92196,0.18304 2.01349,-1.6474 0,-0.73218 -0.45762,-1.83044 -1.37284,-1.83044 -3.56935,0.18304 -4.39305,0.27457 -7.59632,0.27457 -3.20327,0 -5.3998,-0.0915 -8.87763,-0.27457 -0.91522,0 -1.28131,1.09826 -1.28131,1.83044 0.0915,1.83044 0.91522,1.6474 2.01348,1.6474 3.66088,0 4.66762,0.45761 3.47783,3.93545 l -8.96914,23.97876 h -0.27457 c -3.38631,-6.86415 -6.95568,-17.57222 -9.51829,-23.33811 -2.74566,-6.13197 -6.58959,-8.51155 -14.09439,-8.14546 -1.83044,0.0915 -3.2948,-0.0915 -3.20327,1.92196 0.0915,1.6474 0.54913,1.46435 2.105,1.73892 3.66088,0.45761 4.94219,2.105 6.95567,6.58959 3.75241,7.87089 7.8709,20.59245 12.26395,30.47682 0.54914,1.55588 0.54914,2.83719 0.0915,4.21002 -2.37957,5.12523 -6.2235,11.80634 -11.25721,11.80634 -3.02022,0 -4.48458,-2.56262 -4.39306,-4.75914 0.0915,-2.28806 1.46435,-3.02024 1.46435,-3.2948 0,-0.64066 -1.2813,-1.83044 -3.56935,-1.83044 0.54913,0 -5.67436,-0.27457 -5.85741,6.31502 -0.0915,4.66762 4.75915,8.60307 10.06742,8.60307 z" id="path56" />
            <path class="logotype" d="m -473.15597,241.88335 c 7.41329,0 13.2707,-3.66088 17.0231,-9.60981 0.45761,-0.73217 0.18304,-1.92196 -0.73218,-2.47109 -0.82369,-0.54914 -1.55587,-0.45761 -2.01348,0.0915 -3.38631,5.49132 -6.77263,7.41328 -11.89787,7.41328 -10.34198,0 -14.46047,-7.87089 -14.46047,-18.48745 h 22.23985 c 3.7524,0 6.40654,-0.91522 6.40654,-5.21675 -0.8237,-8.87764 -6.31502,-15.37569 -17.57223,-15.37569 -12.63003,0 -20.40941,10.98264 -20.40941,21.59919 0,11.98938 7.23024,22.0568 21.41615,22.0568 z m -12.0809,-26.54138 c 0.45761,-8.78612 4.94218,-13.91135 11.07416,-13.91135 5.94893,0 8.78612,4.85067 8.78612,10.06742 -0.18305,2.83719 -2.01349,3.84393 -4.94219,3.84393 z" id="path58" />
            <path class="logotype" d="m -447.89598,241.05966 c 3.56935,-0.18305 6.22348,-0.27457 9.51828,-0.27457 3.29479,0 6.04045,0.0915 9.60981,0.27457 1.00674,0 1.46436,-0.91522 1.46436,-1.83044 -0.0915,-1.83044 -1.00675,-1.6474 -2.10502,-1.6474 -5.12523,0 -4.75914,-3.02023 -4.75914,-6.2235 v -21.78223 c 1.09826,-2.10502 5.03371,-6.31503 11.34873,-6.31503 4.21001,0 8.78611,2.65414 8.78611,8.6946 v 19.40266 c 0,3.20327 0.36609,6.2235 -4.75914,6.2235 -1.09827,0 -2.01349,-0.18304 -2.105,1.6474 0,0.91522 0.54913,1.83044 1.46435,1.83044 3.56935,-0.18305 6.2235,-0.27457 9.51829,-0.27457 3.29479,0 6.04045,0.0915 9.6098,0.27457 0.91522,0 1.46436,-0.91522 1.46436,-1.83044 -0.0915,-1.83044 -1.00674,-1.6474 -2.105,-1.6474 -5.12524,0 -4.75915,-3.02023 -4.75915,-6.2235 v -19.49419 c 0,-8.14545 -5.21676,-13.63677 -13.54526,-13.63677 -7.68785,0 -11.16568,3.66088 -14.73505,7.04719 h -0.27456 v -5.76589 c 0,-1.46435 -0.8237,-1.83044 -1.73892,-1.73892 -1.83044,0.18304 -3.56935,1.73892 -11.89785,2.92871 -1.00675,0.18304 -1.46436,0.91522 -1.46436,1.64739 0,1.83044 1.09827,1.83044 2.19653,1.83044 5.03371,0 4.66762,3.02023 4.66762,6.2235 v 20.95854 c 0,3.20327 0.36609,6.2235 -4.66762,6.2235 -1.18979,0 -2.01348,-0.18304 -2.19653,1.6474 0,0.91522 0.54914,1.83044 1.46436,1.83044 z" id="path60" />
            <path class="logotype" d="m -382.18328,241.88335 c 5.94893,0 11.80634,-2.56262 14.46048,-7.41328 0.54913,4.66762 4.66762,7.41328 9.1522,7.41328 1.55587,0 5.03371,-0.4576 5.03371,-2.105 0,-1.37284 -0.54913,-1.46435 -1.37283,-1.46435 -3.7524,0 -4.66762,-3.56937 -4.75914,-5.39981 v -21.32462 c 0,-11.25721 -8.6946,-13.36221 -16.93158,-13.36221 -7.04719,0 -14.55199,2.47109 -14.55199,9.33524 0,3.38631 2.10501,6.77263 5.94892,6.77263 2.4711,0 3.93545,-1.73892 3.93545,-2.28806 0,-0.36608 -2.9287,-1.73891 -2.9287,-4.75914 0,-4.11849 3.56935,-6.40654 7.04719,-6.40654 6.86415,0 9.42677,3.47784 9.42677,9.1522 v 7.23024 c -12.0809,0.64065 -26.72443,1.37283 -26.72443,13.72831 0,6.04045 4.75915,10.89111 12.26395,10.89111 z m 2.92871,-4.94219 c -3.84393,0 -5.94894,-1.92196 -5.94894,-6.22349 0,-7.13872 4.85067,-9.88438 17.48071,-10.7996 v 5.21676 c 0,6.6811 -5.30828,11.80633 -11.53177,11.80633 z" id="path62" />
            <path class="logotype" d="m -331.75469,241.88335 c 9.70133,0 16.84005,-5.58284 16.84005,-13.27069 0,-7.68785 -5.49132,-9.79286 -13.54526,-12.35547 -8.14546,-2.56262 -11.34873,-3.66088 -11.34873,-8.96916 0,-3.93544 4.39306,-6.04045 8.69459,-6.04045 3.84393,0 7.59633,1.73892 7.87089,5.21676 0,2.74566 -2.65413,3.93544 -2.65413,4.30153 0,0.45761 1.55587,2.10501 3.7524,2.10501 3.38632,0 5.49132,-2.83719 5.49132,-5.94894 0,-5.76588 -6.6811,-8.69458 -13.36221,-8.69458 -7.96242,0 -16.56548,3.93544 -16.56548,12.0809 0,16.19939 24.71094,10.25047 24.71094,21.05006 0,4.57611 -3.47784,7.13872 -9.1522,7.13872 -6.58959,0 -9.79286,-2.4711 -9.79286,-5.94893 0,-2.74566 2.10501,-3.93545 2.10501,-4.30153 0,-0.45762 -1.55588,-2.10502 -3.75241,-2.10502 -3.38631,0 -5.76588,2.4711 -5.76588,5.94894 0,6.40654 7.04719,9.79285 16.47396,9.79285 z" id="path64" />
            <path class="logotype" d="m -289.65467,241.70031 h 5.39979 l 9.06069,-29.9277 11.62329,29.9277 h 5.3998 l 10.15894,-33.77162 c 1.09826,-4.21001 3.47784,-5.3998 7.87089,-5.3998 1.00675,0 1.92197,0.18304 2.01349,-1.6474 0,-0.73218 -0.45761,-1.83044 -1.37283,-1.83044 -3.56936,0.18304 -4.48458,0.27457 -7.68785,0.27457 -3.20327,0 -5.49132,-0.0915 -8.96915,-0.27457 -0.91522,0 -1.28131,1.09826 -1.28131,1.83044 0.0915,1.83044 0.91522,1.6474 2.01348,1.6474 3.38631,0 4.21001,0.64065 3.47784,3.93545 -1.46435,5.49132 -3.93545,16.657 -6.40654,24.34485 h -0.27457 l -12.53851,-31.48357 h -4.39306 c -1.46435,5.49132 -6.40654,23.79572 -8.87764,31.48357 h -0.27456 l -8.42003,-23.7042 c -2.74566,-6.13197 -6.58958,-8.51155 -14.09439,-8.14546 -1.83044,0.0915 -3.29479,-0.0915 -3.20327,1.92196 0.0915,1.6474 0.54913,1.46435 2.10501,1.73892 3.66088,0.45761 4.94219,2.105 6.95567,6.58959 z" id="path66" />
            <path class="logotype" d="m -215.70509,241.88335 c 7.41328,0 13.27069,-3.66088 17.02309,-9.60981 0.45762,-0.73217 0.18305,-1.92196 -0.73217,-2.47109 -0.8237,-0.54914 -1.55587,-0.45761 -2.01349,0.0915 -3.38631,5.49132 -6.77263,7.41328 -11.89786,7.41328 -10.34198,0 -14.46048,-7.87089 -14.46048,-18.48745 h 22.23985 c 3.7524,0 6.40655,-0.91522 6.40655,-5.21675 -0.82371,-8.87764 -6.31503,-15.37569 -17.57223,-15.37569 -12.63004,0 -20.40941,10.98264 -20.40941,21.59919 0,11.98938 7.23024,22.0568 21.41615,22.0568 z M -227.786,215.34197 c 0.45762,-8.78612 4.94219,-13.91135 11.07417,-13.91135 5.94893,0 8.78611,4.85067 8.78611,10.06742 -0.18304,2.83719 -2.01348,3.84393 -4.94219,3.84393 z" id="path68" />
            <path class="logotype" d="m -175.16095,242.34097 c 3.84392,0 6.77262,-0.45762 10.52503,-2.92871 0.54913,-0.36609 0.64065,-0.73217 0.45761,-1.28131 -0.36609,-0.8237 -0.8237,-1.83044 -1.73892,-1.83044 -0.45761,0 -1.00674,0.27456 -1.46435,0.45761 -2.01348,0.91522 -3.66088,1.00675 -5.03371,1.00675 -4.02697,0 -5.30828,-3.47784 -5.30828,-7.0472 v -27.8227 l 10.25046,0.27457 c 0.64066,0 1.09827,-1.46435 1.09827,-2.74566 0,-0.91522 -0.27456,-1.83044 -1.37283,-1.73892 l -10.70808,0.64066 0.64066,-10.43351 c 0,-0.91522 -1.18979,-1.28131 -1.92197,-1.28131 -0.91522,0 -1.64739,0.18305 -2.01348,1.18978 -1.73891,4.94219 -2.83718,9.06069 -9.60981,10.342 -0.8237,0.18304 -1.2813,1.09826 -1.2813,2.105 0,0.8237 0.4576,1.64739 1.2813,1.64739 l 5.30828,-0.18304 v 26.90747 c 0,8.60307 5.39979,12.72157 10.89112,12.72157 z" id="path70" />
            <path class="logotype" d="m -144.86719,241.88335 c 5.94893,0 11.80633,-2.56262 14.46048,-7.41328 0.54913,4.66762 4.66762,7.41328 9.1522,7.41328 1.55587,0 5.03371,-0.4576 5.03371,-2.105 0,-1.37284 -0.54913,-1.46435 -1.37283,-1.46435 -3.7524,0 -4.66762,-3.56937 -4.75915,-5.39981 v -21.32462 c 0,-11.25721 -8.69459,-13.36221 -16.93157,-13.36221 -7.04719,0 -14.552,2.47109 -14.552,9.33524 0,3.38631 2.105,6.77263 5.94893,6.77263 2.4711,0 3.93545,-1.73892 3.93545,-2.28806 0,-0.36608 -2.92871,-1.73891 -2.92871,-4.75914 0,-4.11849 3.56936,-6.40654 7.0472,-6.40654 6.86415,0 9.42677,3.47784 9.42677,9.1522 v 7.23024 c -12.08091,0.64065 -26.72443,1.37283 -26.72443,13.72831 0,6.04045 4.75914,10.89111 12.26395,10.89111 z m 2.9287,-4.94219 c -3.84392,0 -5.94893,-1.92196 -5.94893,-6.22349 0,-7.13872 4.85067,-9.88438 17.48071,-10.7996 v 5.21676 c 0,6.6811 -5.30828,11.80633 -11.53178,11.80633 z" id="path72" />
          </g>
        </svg>